<svg

   xmlns="http://www.w3.org/2000/svg"




   version="1.1"
   fill="#fff"
   viewBox="0 0 44.999999 45">


  <path

     d="m 10.628229,6.9559603 c 3.21642,-3.21641 7.578781,-5.023376 12.127481,-5.023376 4.5487,0 8.9111,1.806966 12.1275,5.023376 3.2164,3.2164097 5.0234,7.5788097 5.0234,12.1275097 0,4.5487 -1.807,8.9111 -5.0234,12.1275 l -12.1275,12.1275 -12.127481,-12.1275 c -1.5927096,-1.5926 -2.8561196,-3.4832 -3.7180996,-5.5641 -0.861979,-2.0808 -1.305635,-4.3111 -1.305635,-6.5634 0,-2.2523 0.443656,-4.4826 1.305635,-6.5634 0.86198,-2.08088 2.12539,-3.9715597 3.7180996,-5.5641097 z M 22.75571,23.98347 c 1.2996,0 2.5459,-0.5163 3.4648,-1.4352 0.919,-0.9189 1.4352,-2.1653 1.4352,-3.4648 0,-1.2996 -0.5162,-2.5459 -1.4352,-3.4648 -0.9189,-0.919 -2.1652,-1.4352 -3.4648,-1.4352 -1.2995,0 -2.5459,0.5162 -3.4648,1.4352 -0.9189,0.9189 -1.4352,2.1652 -1.4352,3.4648 0,1.2995 0.5163,2.5459 1.4352,3.4648 0.9189,0.9189 2.1653,1.4352 3.4648,1.4352 z" />
</svg>
