<?xml version="1.0" encoding="UTF-8" standalone="no"?>
<svg
   xmlns:dc="http://purl.org/dc/elements/1.1/"
   xmlns:cc="http://creativecommons.org/ns#"
   xmlns:rdf="http://www.w3.org/1999/02/22-rdf-syntax-ns#"
   xmlns:svg="http://www.w3.org/2000/svg"
   xmlns="http://www.w3.org/2000/svg"
   xmlns:sodipodi="http://sodipodi.sourceforge.net/DTD/sodipodi-0.dtd"
   xmlns:inkscape="http://www.inkscape.org/namespaces/inkscape"
   inkscape:version="1.0 (4035a4fb49, 2020-05-01)"
   height="247.99986"
   width="512.00024"
   sodipodi:docname="right-arrow.svg"
   xml:space="preserve"
   viewBox="0 0 512.00024 247.99986"
   y="0px"
   x="0px"
   id="Capa_1"
   version="1.1"><metadata
   id="metadata43"><rdf:RDF><cc:Work
       rdf:about=""><dc:format>image/svg+xml</dc:format><dc:type
         rdf:resource="http://purl.org/dc/dcmitype/StillImage" /><dc:title></dc:title></cc:Work></rdf:RDF></metadata><defs
   id="defs41" /><sodipodi:namedview
   inkscape:current-layer="Capa_1"
   inkscape:window-maximized="1"
   inkscape:window-y="-8"
   inkscape:window-x="1974"
   inkscape:cy="162.23851"
   inkscape:cx="66.962036"
   inkscape:zoom="0.61457523"
   fit-margin-bottom="0"
   fit-margin-right="0"
   fit-margin-left="0"
   fit-margin-top="0"
   showgrid="false"
   id="namedview39"
   inkscape:window-height="1057"
   inkscape:window-width="1858"
   inkscape:pageshadow="2"
   inkscape:pageopacity="0"
   guidetolerance="10"
   gridtolerance="10"
   objecttolerance="10"
   borderopacity="1"
   bordercolor="#666666"
   pagecolor="#ffffff" />
<g
   transform="translate(0,-132.00007)"
   id="g6">
	<g
   id="g4">
		<path
   id="path2"
   d="m 506.134,241.843 c -0.006,-0.006 -0.011,-0.013 -0.018,-0.019 l -104.504,-104 c -7.829,-7.791 -20.492,-7.762 -28.285,0.068 -7.792,7.829 -7.762,20.492 0.067,28.284 L 443.558,236 H 20 c -11.046,0 -20,8.954 -20,20 0,11.046 8.954,20 20,20 h 423.557 l -70.162,69.824 c -7.829,7.792 -7.859,20.455 -0.067,28.284 7.793,7.831 20.457,7.858 28.285,0.068 l 104.504,-104 c 0.006,-0.006 0.011,-0.013 0.018,-0.019 7.833,-7.818 7.808,-20.522 -10e-4,-28.314 z" />
	</g>
</g>
<g
   transform="translate(0,-132.00007)"
   id="g8">
</g>
<g
   transform="translate(0,-132.00007)"
   id="g10">
</g>
<g
   transform="translate(0,-132.00007)"
   id="g12">
</g>
<g
   transform="translate(0,-132.00007)"
   id="g14">
</g>
<g
   transform="translate(0,-132.00007)"
   id="g16">
</g>
<g
   transform="translate(0,-132.00007)"
   id="g18">
</g>
<g
   transform="translate(0,-132.00007)"
   id="g20">
</g>
<g
   transform="translate(0,-132.00007)"
   id="g22">
</g>
<g
   transform="translate(0,-132.00007)"
   id="g24">
</g>
<g
   transform="translate(0,-132.00007)"
   id="g26">
</g>
<g
   transform="translate(0,-132.00007)"
   id="g28">
</g>
<g
   transform="translate(0,-132.00007)"
   id="g30">
</g>
<g
   transform="translate(0,-132.00007)"
   id="g32">
</g>
<g
   transform="translate(0,-132.00007)"
   id="g34">
</g>
<g
   transform="translate(0,-132.00007)"
   id="g36">
</g>
</svg>
