<?xml version="1.0" encoding="utf-8"?><svg xmlns="http://www.w3.org/2000/svg" xmlns:xlink="http://www.w3.org/1999/xlink"><symbol viewBox="0 0 512 512" id="down-arrow" xmlns="http://www.w3.org/2000/svg"><path d="M374.108 373.328c-7.829-7.792-20.492-7.762-28.284.067L276 443.557V20c0-11.046-8.954-20-20-20s-20 8.954-20 20v423.558l-69.824-70.164c-7.792-7.829-20.455-7.859-28.284-.067-7.83 7.793-7.859 20.456-.068 28.285l104 104.504.019.018c7.792 7.809 20.496 7.834 28.314.001l.019-.018 104-104.504c7.79-7.828 7.763-20.492-.068-28.285z"/></symbol><symbol viewBox="0 -28 512.001 512" id="heart" xmlns="http://www.w3.org/2000/svg"><path d="M256 455.516a30.022 30.022 0 01-19.793-7.438c-20.684-18.086-40.625-35.082-58.219-50.074l-.09-.078c-51.582-43.957-96.125-81.918-127.117-119.313C16.137 236.81 0 197.172 0 153.871c0-42.07 14.426-80.883 40.617-109.293C67.121 15.832 103.488 0 143.031 0c29.555 0 56.621 9.344 80.446 27.77C235.5 37.07 246.398 48.453 256 61.73c9.605-13.277 20.5-24.66 32.527-33.96C312.352 9.344 339.418 0 368.973 0c39.539 0 75.91 15.832 102.414 44.578C497.578 72.988 512 111.801 512 153.871c0 43.3-16.133 82.938-50.777 124.738-30.993 37.399-75.532 75.356-127.106 119.309-17.625 15.016-37.597 32.039-58.328 50.168a30.046 30.046 0 01-19.789 7.43zM143.031 29.992c-31.066 0-59.605 12.399-80.367 34.914-21.07 22.856-32.676 54.45-32.676 88.965 0 36.418 13.535 68.988 43.883 105.606 29.332 35.394 72.961 72.574 123.477 115.625l.093.078c17.66 15.05 37.68 32.113 58.516 50.332 20.961-18.254 41.012-35.344 58.707-50.418 50.512-43.051 94.137-80.223 123.469-115.617 30.344-36.618 43.879-69.188 43.879-105.606 0-34.516-11.606-66.11-32.676-88.965-20.758-22.515-49.3-34.914-80.363-34.914-22.758 0-43.653 7.235-62.102 21.5-16.441 12.719-27.894 28.797-34.61 40.047-3.452 5.785-9.53 9.238-16.261 9.238s-12.809-3.453-16.262-9.238c-6.71-11.25-18.164-27.328-34.61-40.047-18.448-14.265-39.343-21.5-62.097-21.5zm0 0"/></symbol><symbol viewBox="0 0 512 248" id="right-arrow" xmlns="http://www.w3.org/2000/svg"><path d="M506.134 109.843l-.018-.02-104.504-104c-7.829-7.79-20.492-7.761-28.285.069-7.792 7.829-7.762 20.492.067 28.284L443.558 104H20c-11.046 0-20 8.954-20 20s8.954 20 20 20h423.557l-70.162 69.824c-7.829 7.792-7.859 20.455-.067 28.284 7.793 7.83 20.457 7.858 28.285.068l104.504-104 .018-.02c7.833-7.817 7.808-20.521-.001-28.313z"/></symbol><symbol viewBox="0 0 512 512" id="share" xmlns="http://www.w3.org/2000/svg"><path d="M406 332c-29.636 0-55.969 14.402-72.378 36.571l-141.27-72.195A89.738 89.738 0 00196 271a89.51 89.51 0 00-6.574-33.753l148.06-88.958C354.006 167.679 378.59 180 406 180c49.626 0 90-40.374 90-90S455.626 0 406 0s-90 40.374-90 90a89.54 89.54 0 006.09 32.54l-148.43 89.18C157.152 192.902 132.941 181 106 181c-49.626 0-90 40.374-90 90s40.374 90 90 90c30.122 0 56.832-14.876 73.177-37.666l140.86 71.985A89.702 89.702 0 00316 422c0 49.626 40.374 90 90 90s90-40.374 90-90-40.374-90-90-90zm0-302c33.084 0 60 26.916 60 60s-26.916 60-60 60-60-26.916-60-60 26.916-60 60-60zM106 331c-33.084 0-60-26.916-60-60s26.916-60 60-60 60 26.916 60 60-26.916 60-60 60zm300 151c-33.084 0-60-26.916-60-60s26.916-60 60-60 60 26.916 60 60-26.916 60-60 60z"/></symbol><symbol viewBox="0 0 512 512" id="time" xmlns="http://www.w3.org/2000/svg"><path d="M256 0C114.845 0 0 114.839 0 256s114.845 256 256 256c141.161 0 256-114.839 256-256S397.155 0 256 0zm0 474.628C135.45 474.628 37.372 376.55 37.372 256S135.45 37.372 256 37.372s218.628 98.077 218.628 218.622c0 120.556-98.078 218.634-218.628 218.634z"/><path d="M343.202 256h-80.973V143.883c0-10.321-8.365-18.686-18.686-18.686s-18.686 8.365-18.686 18.686v130.803c0 10.321 8.365 18.686 18.686 18.686h99.659c10.321 0 18.686-8.365 18.686-18.686S353.523 256 343.202 256z"/></symbol></svg>